<svg width="379" height="122" viewBox="0 0 379 122" fill="none" xmlns="http://www.w3.org/2000/svg">
<path d="M0.0206977 90V2.16H37.1087C37.9627 2.16 39.1014 2.20066 40.5247 2.28199C41.9887 2.32266 43.29 2.44466 44.4287 2.648C49.6747 3.46133 53.965 5.18966 57.2997 7.83299C60.675 10.4763 63.1557 13.811 64.7417 17.837C66.3277 21.8223 67.1207 26.2753 67.1207 31.196C67.1207 36.1167 66.3074 40.59 64.6807 44.616C63.0947 48.6013 60.614 51.9157 57.2387 54.559C53.904 57.2023 49.634 58.9307 44.4287 59.744C43.29 59.9067 41.9887 60.0287 40.5247 60.11C39.0607 60.1913 37.922 60.232 37.1087 60.232H16.6127V90H0.0206977ZM16.6127 44.738H36.3767C37.2307 44.738 38.166 44.6973 39.1827 44.616C40.1994 44.5347 41.1347 44.372 41.9887 44.128C44.2254 43.518 45.9537 42.5013 47.1737 41.078C48.3937 39.614 49.2274 38.0077 49.6747 36.259C50.1627 34.4697 50.4067 32.782 50.4067 31.196C50.4067 29.61 50.1627 27.9427 49.6747 26.194C49.2274 24.4047 48.3937 22.7983 47.1737 21.375C45.9537 19.911 44.2254 18.874 41.9887 18.264C41.1347 18.02 40.1994 17.8573 39.1827 17.776C38.166 17.6947 37.2307 17.654 36.3767 17.654H16.6127V44.738ZM63.5084 90V24.12H78.1484V40.224L76.5624 38.15C77.4164 35.8727 78.555 33.7987 79.9784 31.928C81.4017 30.0573 83.1504 28.512 85.2244 27.292C86.8104 26.316 88.5387 25.5637 90.4094 25.035C92.28 24.4657 94.2117 24.12 96.2044 23.998C98.197 23.8353 100.19 23.876 102.182 24.12V39.614C100.352 39.0447 98.2174 38.8617 95.7774 39.065C93.378 39.2277 91.2024 39.7767 89.2504 40.712C87.2984 41.6067 85.6514 42.8063 84.3094 44.311C82.9674 45.775 81.9507 47.5237 81.2594 49.557C80.568 51.5497 80.2224 53.8067 80.2224 56.328V90H63.5084ZM126.38 91.83C119.752 91.83 113.936 90.3457 108.934 87.377C103.932 84.4083 100.028 80.3213 97.2223 75.116C94.457 69.87 93.0743 63.8513 93.0743 57.06C93.0743 50.1873 94.4976 44.1483 97.3443 38.943C100.191 33.697 104.115 29.61 109.117 26.682C114.119 23.754 119.874 22.29 126.38 22.29C133.009 22.29 138.824 23.7743 143.826 26.743C148.869 29.7117 152.793 33.819 155.599 39.065C158.405 44.2703 159.808 50.2687 159.808 57.06C159.808 63.892 158.385 69.931 155.538 75.177C152.732 80.3823 148.808 84.4693 143.765 87.438C138.763 90.366 132.968 91.83 126.38 91.83ZM126.38 76.336C131.708 76.336 135.673 74.5467 138.275 70.968C140.919 67.3487 142.24 62.7127 142.24 57.06C142.24 51.204 140.898 46.5273 138.214 43.03C135.571 39.5327 131.626 37.784 126.38 37.784C122.761 37.784 119.792 38.5973 117.474 40.224C115.156 41.8507 113.428 44.1077 112.289 46.995C111.191 49.8823 110.642 53.2373 110.642 57.06C110.642 62.9567 111.964 67.6537 114.607 71.151C117.291 74.6077 121.216 76.336 126.38 76.336ZM185.545 121.11C181.803 121.11 178.245 120.5 174.87 119.28C171.494 118.101 168.465 116.433 165.781 114.278C163.137 112.163 160.982 109.683 159.315 106.836L174.687 99.394C175.744 101.346 177.249 102.83 179.201 103.847C181.193 104.864 183.349 105.372 185.667 105.372C188.147 105.372 190.486 104.945 192.682 104.091C194.878 103.278 196.626 102.037 197.928 100.37C199.27 98.7433 199.9 96.71 199.819 94.27V75.116H201.893V24.12H216.411V94.514C216.411 96.1407 216.329 97.6657 216.167 99.089C216.045 100.553 215.801 101.997 215.435 103.42C214.377 107.446 212.405 110.76 209.518 113.363C206.671 115.966 203.174 117.897 199.026 119.158C194.878 120.459 190.384 121.11 185.545 121.11ZM184.081 91.83C178.021 91.83 172.714 90.305 168.16 87.255C163.605 84.205 160.047 80.057 157.485 74.811C154.963 69.565 153.703 63.648 153.703 57.06C153.703 50.35 154.984 44.3923 157.546 39.187C160.148 33.941 163.788 29.8133 168.465 26.804C173.141 23.7947 178.631 22.29 184.935 22.29C191.197 22.29 196.464 23.815 200.734 26.865C205.004 29.915 208.237 34.063 210.433 39.309C212.629 44.555 213.727 50.472 213.727 57.06C213.727 63.648 212.608 69.565 210.372 74.811C208.176 80.057 204.882 84.205 200.49 87.255C196.098 90.305 190.628 91.83 184.081 91.83ZM186.765 77.068C190.465 77.068 193.414 76.2343 195.61 74.567C197.846 72.8997 199.453 70.5613 200.429 67.552C201.405 64.5427 201.893 61.0453 201.893 57.06C201.893 53.0747 201.405 49.5773 200.429 46.568C199.453 43.5587 197.887 41.2203 195.732 39.553C193.617 37.8857 190.831 37.052 187.375 37.052C183.674 37.052 180.624 37.967 178.225 39.797C175.866 41.5863 174.117 44.006 172.979 47.056C171.84 50.0653 171.271 53.4 171.271 57.06C171.271 60.7607 171.82 64.136 172.918 67.186C174.016 70.1953 175.703 72.5947 177.981 74.384C180.258 76.1733 183.186 77.068 186.765 77.068ZM217.633 90V24.12H232.273V40.224L230.687 38.15C231.541 35.8727 232.68 33.7987 234.103 31.928C235.527 30.0573 237.275 28.512 239.349 27.292C240.935 26.316 242.664 25.5637 244.534 25.035C246.405 24.4657 248.337 24.12 250.329 23.998C252.322 23.8353 254.315 23.876 256.307 24.12V39.614C254.477 39.0447 252.342 38.8617 249.902 39.065C247.503 39.2277 245.327 39.7767 243.375 40.712C241.423 41.6067 239.776 42.8063 238.434 44.311C237.092 45.775 236.076 47.5237 235.384 49.557C234.693 51.5497 234.347 53.8067 234.347 56.328V90H217.633ZM253.271 14.97V0.329998H269.863V14.97H253.271ZM253.271 90V24.12H269.863V90H253.271ZM266.19 90V87.926L298.52 38.516H269.85V24.12H324.14V26.194L291.932 75.604H322.92V90H266.19ZM347.457 91.83C340.706 91.83 334.748 90.3863 329.584 87.499C324.46 84.571 320.434 80.5653 317.506 75.482C314.618 70.358 313.175 64.502 313.175 57.914C313.175 50.716 314.598 44.4533 317.445 39.126C320.291 33.7987 324.216 29.671 329.218 26.743C334.22 23.7743 339.974 22.29 346.481 22.29C353.394 22.29 359.27 23.9167 364.11 27.17C368.949 30.4233 372.528 34.9983 374.846 40.895C377.164 46.7917 377.977 53.7253 377.286 61.696H360.877V55.596C360.877 48.886 359.799 44.067 357.644 41.139C355.529 38.1703 352.052 36.686 347.213 36.686C341.56 36.686 337.392 38.4143 334.708 41.871C332.064 45.287 330.743 50.35 330.743 57.06C330.743 63.2007 332.064 67.9587 334.708 71.334C337.392 74.6687 341.316 76.336 346.481 76.336C349.734 76.336 352.52 75.6243 354.838 74.201C357.156 72.7777 358.925 70.724 360.145 68.04L376.737 72.798C374.256 78.8167 370.332 83.4933 364.964 86.828C359.636 90.1627 353.801 91.83 347.457 91.83ZM325.619 61.696V49.374H369.295V61.696H325.619Z" fill="#103C1F"/>
</svg>
